<svg width="732" height="126" viewBox="0 0 732 126" fill="none" xmlns="http://www.w3.org/2000/svg">
<path d="M65.3987 31.5308C56.5163 31.5308 50.4326 35.5394 47.0288 42.4762H45.3215C42.8902 36.1445 37.055 31.5308 28.4104 31.5308C19.7657 31.5308 14.4169 35.3017 11.4993 41.1363H9.79198V32.7409H0.671875V92.1249H10.0405V55.9823C10.0405 45.3935 16.6104 39.9262 25.0066 39.9262C33.4027 39.9262 38.5138 44.9073 38.5138 52.4491V92.1249H47.7636V55.9823C47.7636 45.3935 54.3335 39.9262 62.8485 39.9262C71.3635 39.9262 76.2369 44.9073 76.2369 52.4491V92.1249H85.6056V51.6063C85.6056 39.7965 77.2094 31.5308 65.3987 31.5308Z" fill="white"/>
<path d="M157.152 60.2446C157.152 42.2435 145.352 31.0388 128.56 31.0388C111.767 31.0388 98.8652 44.1884 98.8652 61.9517C98.8652 79.715 111.151 93.8263 129.402 93.8263C145.222 93.8263 152.041 85.1931 156.179 77.6405L147.902 73.6319C144.984 80.0824 139.754 85.5497 129.284 85.5497C117.235 85.5497 109.206 77.5216 108.482 65.1176H157.152V60.2446ZM108.601 57.3272C109.812 46.371 117.484 39.1965 128.56 39.1965C139.636 39.1965 146.929 45.7659 147.416 57.3272H108.601Z" fill="white"/>
<path d="M215.414 40.5359V31.7731H192.051V8.49927H182.553V31.7731H163.578V40.5359H182.553V82.6427C182.553 85.398 183.428 87.667 185.168 89.4498C186.919 91.2327 189.166 92.1295 191.922 92.1295H215.381V83.3667H195.336C193.143 83.3667 192.051 82.1457 192.051 79.7146V40.5359H215.414Z" fill="white"/>
<path d="M275.842 32.746V43.0863H274.146C270.731 37.0031 264.529 31.0388 252.242 31.0388C236.423 31.0388 224.007 43.7022 224.007 62.438C224.007 81.1737 236.423 93.8263 252.242 93.8263C264.529 93.8263 270.731 87.862 274.146 81.7788H275.842V92.1299H284.854V32.746H275.842ZM254.306 85.4309C242.139 85.4309 233.494 76.6681 233.494 62.438C233.494 48.2079 242.139 39.4343 254.306 39.4343C266.474 39.4343 275.605 48.3267 275.605 62.438C275.605 76.5492 266.722 85.4309 254.306 85.4309Z" fill="white"/>
<path d="M446.54 94.894C440.218 94.894 434.697 93.6299 430.115 91.1555C425.523 88.6704 421.967 84.9103 419.547 79.994C417.116 75.0886 415.884 69.1567 415.884 62.3496C415.884 56.4177 417.267 51.0476 419.99 46.3691C422.724 41.7013 426.625 37.9952 431.585 35.3588C436.545 32.744 442.207 31.415 448.431 31.415C454.655 31.415 460.371 32.6684 464.845 35.1535C469.34 37.6387 472.798 41.3556 475.121 46.1746C477.455 50.9936 478.644 56.8282 478.644 63.5273C478.644 69.5457 477.282 74.9913 474.603 79.7239C471.934 84.4457 468.108 88.195 463.235 90.8746C458.372 93.5542 452.753 94.9156 446.529 94.9156L446.54 94.894ZM446.097 35.186C441.991 35.186 438.23 36.1368 434.924 37.9952C431.639 39.8537 429.067 42.5117 427.295 45.9153C425.523 49.308 424.615 53.2734 424.615 57.6926C424.615 64.8131 425.587 70.9071 427.522 75.8125C429.434 80.6964 432.244 84.4132 435.875 86.8552C439.527 89.2971 443.946 90.5396 449.014 90.5396C453.423 90.5396 457.238 89.6428 460.339 87.8708C463.44 86.0988 465.828 83.4192 467.46 79.8968C469.092 76.3312 469.913 71.9011 469.913 66.7256C469.913 59.6267 468.984 53.6516 467.157 48.9623C465.331 44.3161 462.662 40.8261 459.237 38.5787C455.779 36.3313 451.359 35.186 446.097 35.186Z" fill="white"/>
<path d="M478.904 92.8529L478.482 91.7832L492.195 86.8021V8.71488H479.077L478.569 7.94773L501.737 0.00610352L500.483 5.48421L500.494 86.8021L514.206 91.7832L513.774 92.8529H478.904Z" fill="white"/>
<path d="M544.709 94.894C538.398 94.894 532.876 93.6299 528.295 91.1555C523.702 88.6596 520.147 84.9103 517.727 79.994C515.295 75.0886 514.063 69.1567 514.063 62.3496C514.063 56.4177 515.447 51.0476 518.17 46.3691C520.904 41.7013 524.804 37.9952 529.764 35.3588C534.724 32.744 540.386 31.415 546.611 31.415C552.835 31.415 558.551 32.6684 563.025 35.1535C567.52 37.6387 570.978 41.3556 573.301 46.1746C575.635 50.9936 576.824 56.8282 576.824 63.5273C576.824 69.5457 575.462 74.9913 572.782 79.7239C570.113 84.4457 566.288 88.195 561.415 90.8746C556.541 93.5542 550.911 94.9156 544.698 94.9156L544.709 94.894ZM544.277 35.186C540.17 35.186 536.41 36.1368 533.103 37.9952C529.818 39.8537 527.247 42.5117 525.464 45.9153C523.691 49.3188 522.795 53.2734 522.795 57.6926C522.795 64.8131 523.767 70.9071 525.701 75.8125C527.614 80.6964 530.423 84.4132 534.054 86.8552C537.707 89.2971 542.126 90.5396 547.194 90.5396C551.603 90.5396 555.407 89.6428 558.508 87.8708C561.62 86.1096 564.008 83.4192 565.64 79.8968C567.271 76.3312 568.093 71.9011 568.093 66.7256C568.093 59.6267 567.163 53.6516 565.337 48.9623C563.511 44.3161 560.842 40.8261 557.406 38.5895C553.959 36.3421 549.539 35.1968 544.277 35.1968V35.186Z" fill="white"/>
<path d="M370.166 93.8686C364.612 93.8686 359.706 92.7124 355.568 90.4218C351.429 88.1311 348.187 84.868 345.951 80.7189C343.714 76.5807 342.579 71.7293 342.579 66.2728C342.579 59.5629 343.93 53.4797 346.599 48.1961C349.279 42.8801 353.082 38.7094 357.902 35.8028C362.71 32.8855 368.362 31.4052 374.683 31.4052C378.379 31.4052 381.901 32.0211 385.165 33.2313C388.277 34.3874 391.194 36.0406 393.831 38.1475V8.71488H380.745L380 7.96934L403.383 0.00610352L402.13 5.4842V86.8021L415.853 91.7832L415.421 92.8529H393.95V84.3278C391.194 87.1587 387.683 89.4602 383.511 91.1673C379.124 92.9609 374.64 93.8686 370.166 93.8686ZM371.917 35.7704C367.13 35.7704 363.132 36.9374 360.03 39.228C356.929 41.5079 354.649 44.6845 353.266 48.6607C351.872 52.6261 351.116 57.2398 351.018 62.3614V62.9448C351.018 68.5202 351.915 73.3392 353.687 77.2722C355.449 81.1836 357.945 84.1873 361.1 86.2079C364.266 88.2068 368.102 89.2765 372.5 89.3737C377.298 89.3737 381.685 88.0339 385.543 85.3975C389.401 82.7719 392.232 79.2387 393.961 74.8735L393.982 74.8195L393.831 49.9789C391.929 45.9379 388.925 42.4911 384.905 39.8115C380.875 37.121 376.509 35.7596 371.917 35.7596V35.7704Z" fill="white"/>
<path d="M613.152 125.182C604.021 125.182 597.073 123.68 592.502 120.709C587.898 117.716 585.564 113.513 585.564 108.218C585.564 105.171 586.699 101.973 588.947 98.7101C591.075 95.5874 593.896 92.7133 597.3 90.1525L588.46 88.8884V84.6853L599.223 73.2104C595.182 71.5681 591.961 69.0613 589.66 65.755C587.315 62.3839 586.115 58.2024 586.115 53.3293C586.115 48.8453 587.283 44.9123 589.584 41.6276C591.875 38.3645 595.236 35.8145 599.59 34.0533C603.891 32.3029 609.078 31.4277 615.032 31.4277C618.457 31.4277 621.634 31.7951 624.487 32.5298C626.605 33.0593 628.626 33.7724 630.506 34.626C630.819 34.7665 631.122 34.9069 631.435 35.0582C631.727 35.2095 632.008 35.3499 632.289 35.512L632.332 35.5336C632.678 35.7065 632.991 35.8902 633.305 36.0955C634.245 36.6465 635.109 37.2516 635.855 37.8783C635.941 37.9539 635.963 37.9863 635.995 38.0295C636.406 38.3861 636.816 38.8075 637.216 39.2289L637.13 39.4558L637.281 39.3045L637.367 39.3586V39.391L637.411 39.445C637.702 39.7908 637.994 40.1473 638.275 40.5255C639.161 41.6924 639.907 42.9782 640.49 44.3612C641.517 46.8032 642.046 49.8718 642.046 53.4806C642.046 57.8674 640.879 61.7788 638.578 65.1067C636.276 68.4346 632.959 71.0062 628.723 72.7458C624.498 74.4962 619.451 75.393 613.714 75.393C611.866 75.393 609.975 75.2958 608.084 75.1013C606.333 74.9176 604.583 74.6907 602.735 74.3881L595.776 82.5891L631.219 88.0672C635.595 88.6507 639.334 89.6555 642.338 91.071C645.364 92.4864 647.676 94.172 649.189 96.0844C650.723 98.0077 651.491 100.19 651.491 102.546C651.491 107.43 649.924 111.622 646.844 114.993C643.775 118.364 639.334 120.936 633.65 122.632C627.956 124.329 621.051 125.193 613.119 125.193L613.152 125.182ZM600.563 90.682C598.013 93.2319 596.046 95.8035 594.706 98.3427C593.377 100.86 592.696 103.194 592.696 105.301C592.696 110.152 594.739 113.923 598.78 116.484C602.854 119.067 608.862 120.374 616.653 120.374C622.434 120.374 627.502 119.769 631.738 118.57C635.941 117.381 639.194 115.685 641.398 113.524C643.581 111.395 644.683 108.834 644.683 105.885C644.683 102.935 643.224 100.558 640.339 98.7209C637.4 96.8408 632.256 95.3605 625.06 94.3124L600.563 90.682ZM612.86 35.7713C606.927 35.7713 602.173 37.0571 598.726 39.5855C595.257 42.1462 593.615 45.539 593.712 49.9798C593.615 56.5924 595.603 61.8436 599.612 65.6253C603.524 69.299 608.916 71.1683 615.637 71.1683H616.21C621.775 71.1683 626.292 69.8069 629.62 67.138C632.948 64.48 634.634 60.8172 634.634 56.2467C634.634 52.0435 633.758 48.3807 632.051 45.3661C630.322 42.3515 627.804 39.9744 624.563 38.3105C621.299 36.6357 617.355 35.7821 612.86 35.7821V35.7713Z" fill="white"/>
<path d="M637.945 40.7585C637.675 40.3911 637.394 40.0454 637.091 39.6888L636.94 39.5375V39.5159C636.789 39.3322 636.411 38.8892 635.697 38.2842L635.73 38.014L635.589 38.1761C634.855 37.5602 634.012 36.966 633.093 36.4257L632.866 36.2961L633.86 35.1723L634.757 34.1675H649.885L650.285 35.2156L638.053 40.899L637.945 40.7585Z" fill="white"/>
<path d="M636.915 39.4927C636.515 39.0716 636.116 38.672 635.684 38.2832L635.964 37.9592C636.699 38.5856 637.098 39.0392 637.239 39.212L636.915 39.4927Z" fill="white"/>
<path d="M669.223 125.198L691.808 88.2778L687.183 89.2286L663.388 40.077L655.338 35.204L655.749 34.1775H683.617L684.049 35.2364L672.303 40.0338L692.834 83.5452L714.37 40.0338L702.635 35.2364L703.056 34.1775H730.806L731.324 35.2256L719.632 40.0878L693.904 92.5782L679.219 125.198H669.223Z" fill="white"/>
<path d="M329.707 58.823H297.992V66.9807H329.707V58.823Z" fill="white"/>
</svg>
